<?xml version="1.0" standalone="no"?>
<!DOCTYPE svg PUBLIC "-//W3C//DTD SVG 20010904//EN"
 "http://www.w3.org/TR/2001/REC-SVG-20010904/DTD/svg10.dtd">
<svg version="1.0" xmlns="http://www.w3.org/2000/svg"
 width="100.000000pt" height="100.000000pt" viewBox="0 0 100.000000 100.000000"
 preserveAspectRatio="xMidYMid meet">

<g transform="translate(0.000000,100.000000) scale(0.100000,-0.100000)"
fill="#000000" stroke="none">
<path d="M399 769 c5 -13 27 -62 49 -109 l40 -85 1 43 c1 53 21 47 22 -6 0
-37 1 -37 31 28 67 145 70 153 51 145 -62 -26 -124 -26 -186 0 -15 6 -16 4 -8
-16z"/>
<path d="M246 584 c17 -58 17 -88 0 -136 -8 -21 -10 -38 -5 -38 5 0 51 21 104
47 98 49 104 61 30 65 -33 1 -30 2 18 7 l59 6 -102 45 c-56 25 -106 46 -110
48 -5 2 -2 -18 6 -44z"/>
<path d="M652 582 l-102 -47 57 -6 c42 -4 49 -6 23 -8 -79 -5 -74 -14 35 -69
58 -28 105 -51 105 -49 0 1 -7 20 -15 42 -18 50 -18 99 -1 148 8 20 11 37 7
36 -3 0 -52 -21 -109 -47z"/>
<path d="M437 359 c-43 -94 -45 -101 -24 -95 12 4 34 9 50 12 27 6 27 7 27 95
0 49 -1 89 -3 89 -2 0 -24 -46 -50 -101z"/>
<path d="M510 372 l0 -88 42 -11 c24 -6 44 -10 46 -8 4 4 -79 195 -84 195 -2
0 -4 -40 -4 -88z"/>
</g>
</svg>
